<svg xmlns="http://www.w3.org/2000/svg" width="64" height="64" enable-background="new 0 0 64 64" viewBox="0 0 64 64" id="apartment">
  <path fill="#010101" d="M62.465,19.505c0.535,0,0.969-0.434,0.969-0.97V11.93c0-0.536-0.434-0.97-0.969-0.97H42.24V8.548h1.445
		c0.535,0,0.969-0.435,0.969-0.97V0.97c0-0.536-0.434-0.97-0.969-0.97H20.314c-0.535,0-0.971,0.434-0.971,0.97v6.609
		c0,0.535,0.436,0.97,0.971,0.97h1.447v2.412H1.536c-0.535,0-0.97,0.434-0.97,0.97v6.605c0,0.536,0.435,0.97,0.97,0.97h2.657v35.942
		H1.536c-0.535,0-0.97,0.434-0.97,0.97v6.605c0,0.536,0.435,0.97,0.97,0.97h21.158c0.013,0,0.024,0.008,0.037,0.008H41.27
		c0.014,0,0.025-0.007,0.039-0.008h21.156c0.535,0,0.969-0.434,0.969-0.97v-6.605c0-0.536-0.434-0.97-0.969-0.97h-2.658V19.505
		H62.465z M21.283,6.609V1.939h21.434v4.669h-1.438c-0.002,0-0.006-0.002-0.01-0.002c-0.002,0-0.006,0.002-0.008,0.002H22.741
		c-0.003,0-0.007-0.002-0.01-0.002s-0.006,0.002-0.009,0.002H21.283z M42.24,19.505h15.627v35.942H42.24V19.505z M40.301,11.958
		v6.549c0,0.01-0.006,0.018-0.006,0.028c0,0.01,0.006,0.019,0.006,0.028v36.884h-3.869v-8.953c0-0.535-0.434-0.969-0.969-0.969
		h-6.925c-0.536,0-0.97,0.434-0.97,0.969v8.953h-3.867V18.554c0-0.007,0.004-0.012,0.004-0.019c0-0.006-0.004-0.012-0.004-0.019
		v-6.568c0-0.006,0.004-0.012,0.004-0.019s-0.004-0.012-0.004-0.019V8.548h16.6v3.354c0,0.01-0.006,0.018-0.006,0.028
		C40.295,11.94,40.301,11.948,40.301,11.958z M34.492,47.464v7.983h-4.984v-7.983H34.492z M2.506,17.565V12.9h19.256v4.666H2.506z
		 M21.762,19.505v35.942H6.133V19.505H21.762z M61.494,57.387v4.666H41.281c-0.004,0-0.006-0.002-0.012-0.002
		c-0.016,0-0.031,0.009-0.049,0.01h-18.39c-0.013-0.001-0.024,0.005-0.036,0.004c-0.021-0.001-0.039-0.012-0.06-0.012H2.506v-4.666
		H5.16c0.001,0,0.002,0,0.002,0c0.002,0,0.002,0,0.003,0h23.373h6.925h23.371c0.002,0,0.002,0,0.004,0c0,0,0,0,0.002,0H61.494z
		 M42.24,17.565V12.9h19.254v4.666H42.24z"></path>
  <path fill="#010101" d="M36.836 12.808h-9.671c-.536 0-.97.434-.97.97s.434.97.97.97h9.671c.535 0 .969-.434.969-.97S37.371 12.808 36.836 12.808zM36.836 18.288h-9.671c-.536 0-.97.434-.97.97s.434.97.97.97h9.671c.535 0 .969-.434.969-.97S37.371 18.288 36.836 18.288zM36.836 23.768h-9.671c-.536 0-.97.434-.97.97s.434.97.97.97h9.671c.535 0 .969-.434.969-.97S37.371 23.768 36.836 23.768zM36.836 29.248h-9.671c-.536 0-.97.435-.97.97 0 .536.434.97.97.97h9.671c.535 0 .969-.434.969-.97C37.805 29.683 37.371 29.248 36.836 29.248zM36.836 34.729h-9.671c-.536 0-.97.434-.97.97 0 .535.434.969.97.969h9.671c.535 0 .969-.434.969-.969C37.805 35.163 37.371 34.729 36.836 34.729zM10.604 27.487h6.687c.535 0 .969-.434.969-.97s-.434-.97-.969-.97h-6.687c-.536 0-.97.434-.97.97S10.068 27.487 10.604 27.487zM10.604 32.968h6.687c.535 0 .969-.434.969-.97 0-.535-.434-.97-.969-.97h-6.687c-.536 0-.97.435-.97.97C9.635 32.534 10.068 32.968 10.604 32.968zM10.604 38.448h6.687c.535 0 .969-.435.969-.97 0-.536-.434-.97-.969-.97h-6.687c-.536 0-.97.434-.97.97C9.635 38.014 10.068 38.448 10.604 38.448zM10.604 43.929h6.687c.535 0 .969-.435.969-.97 0-.536-.434-.97-.969-.97h-6.687c-.536 0-.97.434-.97.97C9.635 43.494 10.068 43.929 10.604 43.929zM10.604 49.409h6.687c.535 0 .969-.434.969-.97s-.434-.97-.969-.97h-6.687c-.536 0-.97.434-.97.97S10.068 49.409 10.604 49.409zM53.396 25.548h-6.688c-.535 0-.969.434-.969.97s.434.97.969.97h6.688c.535 0 .969-.434.969-.97S53.932 25.548 53.396 25.548zM53.396 31.028h-6.688c-.535 0-.969.435-.969.97 0 .536.434.97.969.97h6.688c.535 0 .969-.434.969-.97C54.365 31.463 53.932 31.028 53.396 31.028zM53.396 36.509h-6.688c-.535 0-.969.434-.969.97 0 .535.434.97.969.97h6.688c.535 0 .969-.435.969-.97C54.365 36.943 53.932 36.509 53.396 36.509zM53.396 41.989h-6.688c-.535 0-.969.434-.969.97 0 .535.434.97.969.97h6.688c.535 0 .969-.435.969-.97C54.365 42.423 53.932 41.989 53.396 41.989zM53.396 47.469h-6.688c-.535 0-.969.434-.969.97s.434.97.969.97h6.688c.535 0 .969-.434.969-.97S53.932 47.469 53.396 47.469z"></path>
</svg>
