<svg xmlns="http://www.w3.org/2000/svg" xmlns:xlink="http://www.w3.org/1999/xlink" id="Layer_1" x="0px" y="0px" viewBox="0 0 208.5 51.9" style="enable-background:new 0 0 208.5 51.9;" xml:space="preserve"><style type="text/css">	.st0{fill-rule:evenodd;clip-rule:evenodd;fill:#FFFFFF;}	.st1{fill:#FFFFFF;}</style><path class="st0" d="M15.2,27.3c0-2.3,1.9-4.2,4.2-4.2l0,0h17.4c2.3,0,4.2,1.9,4.2,4.2v0.1c0,2.3-1.9,4.2-4.2,4.2H19.4 C17.1,31.5,15.2,29.7,15.2,27.3L15.2,27.3L15.2,27.3z"></path><path class="st0" d="M9.2,40.8c0-2.3,1.9-4.2,4.2-4.2h17.4c2.3,0,4.2,1.8,4.2,4.1c0,0,0,0,0,0v0.1c0,2.3-1.9,4.2-4.2,4.2 c0,0,0,0,0,0H13.4C11.1,45,9.2,43.1,9.2,40.8L9.2,40.8L9.2,40.8z"></path><path class="st0" d="M21.1,13.7c0-2.3,1.9-4.2,4.2-4.2h17.4c2.3,0,4.2,1.9,4.2,4.2v0.1c0,2.3-1.8,4.2-4.2,4.2c0,0,0,0,0,0H25.3 c-2.3,0-4.2-1.9-4.2-4.2V13.7z"></path><path class="st0" d="M51.8,37l-3.6,8h-6.4L57.5,9.5h6.4L79.6,45h-6.4l-3.5-8H51.8z M67.2,31.5l-6.5-14.7l-6.4,14.6L67.2,31.5z  M100.7,32.7V18h5.7v27h-5.7v-4.9c-2.9,5.1-9.4,6.8-14.5,3.9c-0.7-0.4-1.3-0.9-1.9-1.4c-1.9-1.9-2.8-4.5-2.8-8.1V18h5.7v14.8 c0,5,2.1,7.5,6.2,7.5c1.9,0,3.7-0.7,5.1-2C100,36.8,100.8,34.7,100.7,32.7L100.7,32.7z M120.1,22.6v13.7c-0.1,1.1,0.3,2.2,1,3.1 c0.7,0.8,1.8,1.2,2.9,1.1c1.4-0.1,2.6-0.7,3.5-1.8l2.3,4c-1.8,1.7-4.2,2.7-6.6,2.7c-2.3,0-4.6-0.9-6.2-2.5c-1.8-1.8-2.7-4.3-2.6-6.8 V22.6h-3.4V18h3.4V9.5h5.7V18h7.1v4.6L120.1,22.6z M145.1,40.4c2.3,0.1,4.5-0.8,6.1-2.5c1.6-1.7,2.5-4,2.4-6.4 c0.1-2.4-0.8-4.7-2.4-6.4c-3.4-3.3-8.8-3.3-12.2,0c-1.6,1.7-2.5,4-2.4,6.4c-0.1,2.3,0.8,4.6,2.4,6.3 C140.6,39.5,142.8,40.4,145.1,40.4L145.1,40.4z M145.1,45.5c-3.8,0.1-7.5-1.3-10.1-4c-2.7-2.6-4.1-6.2-4.1-9.9 c-0.1-3.7,1.4-7.4,4.1-10c5.7-5.4,14.6-5.4,20.3,0c2.7,2.6,4.1,6.2,4.1,9.9c0.1,3.7-1.4,7.3-4.1,9.9 C152.6,44.1,148.9,45.5,145.1,45.5L145.1,45.5z"></path><path class="st0" d="M192,10.1c0-1,0.4-1.9,1.1-2.5c1.4-1.4,3.7-1.4,5.1,0c0.7,0.7,1,1.6,1,2.5c-0.1,2-1.8,3.5-3.8,3.4 C193.6,13.4,192.1,11.9,192,10.1z"></path><rect x="192.7" y="18" class="st1" width="5.7" height="27"></rect><polygon class="st0" points="170.3,15.1 170.3,24.9 186.1,24.9 186.1,30.4 170.3,30.4 170.3,45 164.4,45 164.4,9.5 188,9.5  188,15.1 170.3,15.1 "></polygon></svg>