<svg xmlns="http://www.w3.org/2000/svg" xml:space="preserve" style="enable-background:new 0 0 512 512" viewBox="0 0 512 512" id="car-loan">
  <g id="_x33_7_x2C__Car_Loan_x2C__Vehicle_Finance_x2C__Auto_Loan_x2C__Leasing_x2C__Installments_x2C__Credit">
    <g>
      <g>
        <rect width="200" height="245" x="101" y="71" style="fill:#fff"></rect>
        <path d="M496,361v32.375H16l0.041-24.374c-0.032-14.601-0.328-18.286,0.849-24.891
				c1.533-7.516,4.377-15.18,9.56-23.11c10.52-15.11,28.03-25,47.85-25c16.847,0,35.999,0,52.49,0l68.25-59.37
				c11.59-10.08,26.43-15.63,41.78-15.63c15.308,0,114.508,0,130.69,0c19.3,0,37.01,10.69,46,27.77L438.37,296h23.13
				c19.05,0,34.5,15.45,34.5,34.5V341l-8.5,10L496,361z" style="fill:#9dcafc"></path>
        <path d="M491,381c-19.959,0-427.792,0-470,0c-8.272,0-15,6.721-15,15c0,8.266,6.719,15,15,15
				c34.344,0,388.419,0,470,0c8.28,0,15-6.72,15-15C506,387.747,499.296,381,491,381z" style="fill:#9dcafc"></path>
        <path d="M436 396c0 24.734-20.041 45-45 45-24.931 0-45-20.239-45-45 0-24.734 20.041-45 45-45C415.931 351 436 371.239 436 396zM141 396c0 24.734-20.041 45-45 45-24.931 0-45-20.239-45-45 0-24.734 20.041-45 45-45C120.931 351 141 371.239 141 396z" style="fill:#9dcafc"></path>
        <circle cx="391" cy="396" r="15" style="fill:#fff"></circle>
        <circle cx="96" cy="396" r="15" style="fill:#fff"></circle>
        <path d="M393.16,259.48L412.38,296H366l-13.17-25L366,244h1.51C378.3,244,388.13,249.93,393.16,259.48z" style="fill:#9dcafc"></path>
        <rect width="20" height="52" x="271" y="244" style="fill:#9dcafc"></rect>
        <rect width="75" height="52" x="291" y="244" style="fill:#fff"></rect>
        <path d="M271 244v52H161.83l48.3-42.02c7.41-6.43 16.88-9.98 26.69-9.98H271zM496 341v20h-15c-2.76 0-5.26-1.12-7.07-2.93S471 353.76 471 351c0-5.52 4.48-10 10-10H496zM33.5 321c6.9 0 12.5 5.6 12.5 12.5 0 6.912-5.6 12.5-12.5 12.5h-10c-6.918 0-12.5-5.614-12.5-12.5 0-6.912 5.6-12.5 12.5-12.5C26.09 321 32.742 321 33.5 321z" style="fill:#fff"></path>
        <path d="M271,106v45H156c-6.63-8.83-15.17-16.15-25-21.34V106H271z" style="fill:#9dcafc"></path>
        <path d="M170.83,201c-2.572,39.148-35.148,70-74.83,70c-41.42,0-75-33.58-75-75s33.58-75,75-75
				C139.415,121,173.714,157.744,170.83,201z" style="fill:#9dcafc"></path>
        <circle cx="96" cy="196" r="55" style="fill:#fff"></circle>
        <path d="M101,231v-5h10c2.762,0,5-2.238,5-5v-25c0-2.762-2.238-5-5-5H86v-15h25c2.762,0,5-2.238,5-5
				s-2.238-5-5-5h-10v-5c0-2.762-2.238-5-5-5s-5,2.238-5,5v5H81c-2.762,0-5,2.238-5,5v25c0,2.762,2.238,5,5,5h25v15H81
				c-2.762,0-5,2.238-5,5s2.238,5,5,5h10v5c0,2.762,2.238,5,5,5S101,233.762,101,231z" style="fill:#4269a7"></path>
        <path d="M156,196c0-33.084-26.916-60-60-60s-60,26.916-60,60s26.916,60,60,60S156,229.084,156,196z
				 M46,196c0-27.57,22.43-50,50-50s50,22.43,50,50s-22.43,50-50,50S46,223.57,46,196z" style="fill:#4269a7"></path>
        <path d="M501,378.699c0-33.056,0-15.354,0-48.199c0-21.78-17.72-39.5-39.5-39.5h-20.111l-23.454-44.56
				C408.051,227.664,388.729,216,367.51,216H306V71c0-2.762-2.238-5-5-5H101c-2.762,0-5,2.238-5,5v45c-44.112,0-80,35.888-80,80
				s35.888,80,80,80v15H74.3c-19.812,0-38.448,9.301-50.385,25H23.5C13.851,316,6,323.851,6,333.5c0,5.011,2.129,9.525,5.516,12.718
				c-0.857,6.71-0.381,9.731-0.516,32.488C5.032,382.17,1,388.616,1,396c0,11.09,9,20,20,20h29.187
				c7.731,17.641,25.351,30,45.813,30s38.081-12.359,45.813-30h203.375c7.731,17.641,25.351,30,45.813,30s38.081-12.359,45.813-30
				H491c11.028,0,20-8.972,20-20C511,388.705,507.132,382.264,501,378.699z M491,356h-10c-2.757,0-5-2.243-5-5s2.243-5,5-5h10V356z
				 M26,196c0-38.598,31.402-70,70-70s70,31.402,70,70s-31.402,70-70,70S26,234.598,26,196z M136,126.763V111h130v35H158.384
				C152.19,138.288,144.601,131.751,136,126.763z M106,275.353c36.128-4.528,64.824-33.225,69.353-69.353H236c2.762,0,5-2.238,5-5
				s-2.238-5-5-5h-60c0-5.128-0.504-10.138-1.431-15H236c2.762,0,5-2.238,5-5s-2.238-5-5-5h-64.022
				c-1.736-5.262-4.004-10.281-6.741-15H271c2.762,0,5-2.238,5-5v-45c0-2.762-2.238-5-5-5H131c-2.762,0-5,2.238-5,5v15.858
				c-6.309-2.563-13.015-4.336-20-5.211V76h190v140h-59.18c-16.56,0-32.563,5.986-45.062,16.857L124.92,291H106V275.353z M23.5,326
				c0.321,0,10.147,0,10,0c4.136,0,7.5,3.364,7.5,7.5s-3.364,7.5-7.5,7.5h-10c-4.136,0-7.5-3.364-7.5-7.5S19.364,326,23.5,326z
				 M21.124,350.819c2.387,0.326,2.87,0.12,12.376,0.181c9.649,0,17.5-7.851,17.5-17.5c0-8.486-6.073-15.575-14.1-17.163
				C46.781,306.606,60.187,301,74.3,301h52.49c1.206,0,2.371-0.436,3.281-1.228l68.25-59.37C209,231.115,222.673,226,236.82,226
				H367.51c17.495,0,33.427,9.617,41.575,25.099l24.86,47.23c0.865,1.643,2.568,2.671,4.425,2.671h23.13
				c16.267,0,29.5,13.233,29.5,29.5v5.5h-10c-8.271,0-15,6.729-15,15s6.729,15,15,15h10v10h-54.187
				c-7.731-17.641-25.351-30-45.813-30s-38.081,12.359-45.813,30H141.813c-7.731-17.641-25.351-30-45.813-30
				s-38.081,12.359-45.813,30H21C21.045,354.187,20.899,354.319,21.124,350.819z M21,406c-5.483,0-10-4.453-10-10
				c0-5.514,4.486-10,10-10h26.006c-1.297,6.367-1.385,13.202,0,20H21z M96,436c-22.056,0-40-17.944-40-40s17.944-40,40-40
				s40,17.944,40,40S118.056,436,96,436z M144.994,406c1.297-6.367,1.385-13.202,0-20h197.012c-1.297,6.367-1.385,13.202,0,20
				H144.994z M391,436c-22.056,0-40-17.944-40-40s17.944-40,40-40s40,17.944,40,40S413.056,436,391,436z M491,406h-51.006
				c1.297-6.367,1.385-13.202,0-20H491c5.483,0,10,4.453,10,10C501,401.514,496.514,406,491,406z" style="fill:#4269a7"></path>
        <path d="M96 376c-11.028 0-20 8.972-20 20s8.972 20 20 20 20-8.972 20-20S107.028 376 96 376zM96 406c-5.514 0-10-4.486-10-10s4.486-10 10-10 10 4.486 10 10S101.514 406 96 406zM391 376c-11.028 0-20 8.972-20 20s8.972 20 20 20 20-8.972 20-20S402.028 376 391 376zM391 406c-5.514 0-10-4.486-10-10s4.486-10 10-10 10 4.486 10 10S396.514 406 391 406zM161.834 301c40.063 0 217.256 0 250.545 0 3.759 0 6.174-4.004 4.425-7.329l-19.222-36.518C391.687 245.956 380.164 239 367.51 239h-130.69c-11.012 0-21.654 3.981-29.967 11.212l-48.3 42.016c-1.574 1.369-2.133 3.571-1.401 5.524C157.882 299.705 159.748 301 161.834 301zM276 291v-42h10v42H276zM361 291h-65v-42h65V291zM388.732 261.812 404.097 291H371v-41.742C378.519 250.355 385.122 254.954 388.732 261.812zM213.415 257.757c6.492-5.646 14.805-8.757 23.404-8.757H266v42h-90.8L213.415 257.757zM266 326h-10c-2.762 0-5 2.238-5 5s2.238 5 5 5h10c2.762 0 5-2.238 5-5S268.762 326 266 326z" style="fill:#4269a7"></path>
      </g>
    </g>
  </g>
</svg>
