<svg xmlns="http://www.w3.org/2000/svg" viewBox="0 0 48 48" id="car-loan">
  <path fill="#ccd3eb" d="M45 8v39H11V1h27l7 7z"></path>
  <path fill="#f5f7ff" d="M42 5v36a3 3 0 0 1-3 3H11V1h27Z"></path>
  <circle cx="12" cy="22" r="9" fill="#0074ff"></circle>
  <path fill="#0074ff" d="M40 37v3a1 1 0 0 1-1 1H17a1 1 0 0 1-1-1v-1a4 4 0 0 1 4-4h18a2 2 0 0 1 2 2zm-3-2H22c4.67-7 2.86-6 10.84-6a3 3 0 0 1 2.84 2.05z"></path>
  <path fill="#96a1c3" d="M45 8h-7V1l7 7z"></path>
  <circle cx="34" cy="41" r="2" fill="#647499"></circle>
  <circle cx="22" cy="41" r="2" fill="#647499"></circle>
  <path fill="#033c59" d="M44 17v29h-3a1 1 0 0 0 0 2h4a1 1 0 0 0 1-1V17a1 1 0 0 0-2 0Z"></path>
  <path fill="#033c59" d="M46 7.94c0-.56 0-.34-7.28-7.65C38.28-.14 40.22 0 11 0a1 1 0 0 0-1 1v11.2a10 10 0 0 0 0 19.6V47a1 1 0 0 0 1 1h22a1 1 0 0 0 0-2H12V32a10 10 0 0 0 9.76-12.21 1 1 0 0 0-2 .42A8 8 0 1 1 18 16.67a1 1 0 0 0 1.5-1.34A10 10 0 0 0 12 12V2h25v6a1 1 0 0 0 1 1h6v4a1 1 0 0 0 2 0V7.94zM39 7V3.41L42.59 7zm-1.45 39.17a1 1 0 1 0 .16 1.54 1 1 0 0 0-.16-1.54z"></path>
  <path fill="#f5f7ff" d="M12 19a1 1 0 0 1 1 1 1 1 0 0 0 1 1c1.66 0 1.21-3-1-3.82a1 1 0 1 0-2 0A3 3 0 0 0 12 23a1 1 0 1 1-1 1 1 1 0 0 0-1-1c-1.66 0-1.21 3 1 3.82a1 1 0 1 0 2 0A3 3 0 0 0 12 21a1 1 0 0 1 0-2Z"></path>
  <path fill="#033c59" d="M41 40v-3a3 3 0 0 0-3-3c-.4 0-.12.48-1.37-3.26A4 4 0 0 0 32.84 28h-5.23a4 4 0 0 0-3.33 1.78L21.46 34H20a5 5 0 0 0-5 5v1a2 2 0 0 0 2 2h2.18a3 3 0 0 0 5.64 0h6.36a3 3 0 0 0 5.64 0H39a2 2 0 0 0 2-2ZM31 30c3.75 0 3.28 0 4.61 4H31Zm-2 0v4h-5.13c2.79-4.18 2.13-4 5.13-4Zm-7 12a1 1 0 0 1 0-2 1 1 0 0 1 0 2Zm12 0a1 1 0 0 1 0-2 1 1 0 0 1 0 2Zm5-2h-2.18a3 3 0 0 0-5.64 0h-6.36a3 3 0 0 0-5.64 0H17v-1a3 3 0 0 1 3-3h18a1 1 0 0 1 1 1Z"></path>
  <path fill="#96a1c3" d="M32 7H16a1 1 0 0 0 0 2h16a1 1 0 0 0 0-2zm8 4H25a1 1 0 0 0 0 2h15a1 1 0 0 0 0-2zm-15 6h7a1 1 0 0 0 0-2h-7a1 1 0 0 0 0 2zm15-2h-4a1 1 0 0 0 0 2h4a1 1 0 0 0 0-2zm0 4H25a1 1 0 0 0 0 2h15a1 1 0 0 0 0-2zm-15 6h2a1 1 0 0 0 0-2h-2a1 1 0 0 0 0 2zm15-2h-9a1 1 0 0 0 0 2h9a1 1 0 0 0 0-2z"></path>
</svg>
