<svg xmlns="http://www.w3.org/2000/svg" viewBox="0 0 1353.6 867.53" id="loan-piggybank">
  <path d="M1920.06,1254.11c-9.11-1.45-17.62,4.19-25.88,8.29-26.91,13.35-57.14,9.87-83.24-3.41a83.08,83.08,0,0,1-11.15-6.91,113.73,113.73,0,0,0,22.68-13.38c31.6-24.21,43.68-77,6.72-102.46-28.92-19.88-72.45-6.3-84.89,26.41-9.59,25.24,0,51.36,16,72.61a174.89,174.89,0,0,1-47.5,1.88c-11.94-157.93-149.12-291.34-295.69-345.45-147.19-54.34-311.24-39.75-461.48-6.05-29.41-20.7-58.32-44.63-92.38-56.7-26.62-9.43-54.91-11.92-83-12.55-26.89-.61-55.83.2-81,10.61-7.4,3.06-14.3,12.43-8.35,20.51,15.72,21.33,37,36.71,55,55.83a254.86,254.86,0,0,1,39,53.85,132.89,132.89,0,0,1,12.25,30.38c.76,3,1.19,6.21,1.65,9.31-.11-.32-.23-.63-.36-.94-4.15,14.86-20.08,31-28.3,44.57q-14.88,24.6-27.46,50.49c-17.64,36.34-30.3,73.82-41.08,112.26-.38-1.21-.76-2.41-1.16-3.61-7.81-23.23-21.67-45.52-44.86-55.9-19.79-8.85-41.34-3.92-56.48,11.39-33.17,33.54-35,96.86-2.47,131,15.83,16.61,39,25.48,61.69,20.26,15.67-3.6,27-12.93,35-25.13a163.14,163.14,0,0,0,5.34,16.23,553.12,553.12,0,0,0,28.41,61.39C771.4,1440.3,840.5,1507.83,930,1534.47c-14.48,24-32.58,46.07-50.19,67.55-13.57,16.54-27.43,32.87-41.77,48.75-7.91,8.77-2.68,23.88,9.87,23.83l124.37-.46,69.69-.25c4,0,8.24.35,12.24-.05,10.35-1,14.45-10.57,19.51-18.39l35.48-54.83,140,4.09c18,.53,18-18.83,0-19.35l-102.8-3c-14.5-.43-20.79-1.84-35.3-1.29-13.9.53-22.69,13.53-29.26,23.67q-14.65,22.66-29.32,45.31c-.06-1.37-.71-2.75,1.69-4.13l-175.45.65q11.35-13.27,22.4-26.82c22.32-27.32,45.69-55.57,61.83-87.13,3.92-7.67.87-18.37-8.35-20.51-95-22-164.78-92.2-208.48-176.86-11.21-21.73-21.56-44.54-28.86-67.93-3.2-10.28-5.45-20.8-7.68-31.33,1-5.28,2.07-10.57,3.32-15.79q4.79-20,11.18-39.56a427.51,427.51,0,0,1,25.63-61.72c14.57-28.43,32.74-55,52.28-79.61,6.81-8.56,14.49-17,20-26.52,7.45-13,4.56-25.93.06-39.83-8.81-27.21-24.94-51.66-42.8-73.75-15.36-19-35.43-33.82-52.14-51.49,19.46-4.09,39.93-3.92,59.62-3.23,29.32,1,58.8,4.83,85.27,18.32,18.5,9.42,35.16,23.09,52.18,34.93,6.51,4.53,12.91,9.44,19.65,13.63,18.5,11.47,66-8.82,86.16-12.39,192.32-34.09,410.48-23.61,554.4,125.66,70,72.57,119.06,175.17,103.54,277.76-16.13,106.56-92.64,197.83-187.09,249.71l6.31,1.87c-4.15-.12-8.47,4-9,8.44-.72,5.57,2.24,10.87,5.09,15.69l45.84,77.46-169.64,0-42.84-64.6c-5.38-8.11-14.36-17.34-23.13-13.14-7,3.35-7.1,11.53-4.46,19.47a47.52,47.52,0,0,0,5.44,11.07l37.59,56.42c4.17,6.26,8.65,12.8,15.42,16.09,5.8,2.83,12.51,2.87,19,2.86q91.68-.16,183.36-.66c4.48,0,9.34-.18,12.8-3,7.27-6,2.78-17.65-2.19-25.65l-57.26-92.3c80.59-56.33,153.94-129.21,179.73-223.33a299.93,299.93,0,0,0,10.75-73.66c22,2,46.42.14,68.74-6.56,2.41,2.06,4.83,4,7.25,5.82,38.69,29,93.53,29.19,133.14,1.67C1928.8,1261.79,1928.25,1255.42,1920.06,1254.11ZM681.5,1269.26c-5.44,9.4-14.3,17.47-25,19.16-32.05,5-55.14-25.48-55.68-54.85-.38-21,5.94-64.88,34.2-65.84,9.83-.33,18.62,6.29,24.82,13.93,16.39,20.18,21.84,47.55,27.55,74.25A73.06,73.06,0,0,1,681.5,1269.26Zm1096.41-38.49c-16.94-21.79-25.48-50-6-71,6.78-7.28,15.92-12.86,25.86-13.36,39.85-2,27.87,55.73,6.69,71A97.88,97.88,0,0,1,1777.91,1230.77Z" transform="translate(-573.2 -816.24)"></path>
  <path d="M851.56 1105.15c.78 17.4 14.11 32.11 32.11 32.11 16.8 0 32.89-14.77 32.12-32.11S901.68 1073 883.67 1073C866.87 1073 850.78 1087.8 851.56 1105.15zM1373.79 1411.14c26.49-15 43.57-45.84 42.48-76.75-1-29.19-14.09-52.94-37.77-68.69-24-15.94-65.09-21.75-96.58-16.42 2.74-8.14 21.67-79.92 87.34-134.68 9.23-7.69 24.76-12.64 27-25.09 2.07-11.35-7.26-14.19-15.49-8.1s-16.17 12.39-23.76 19.21a315.41 315.41 0 00-41.7 45.64c-25.09 33.48-43.7 71.65-55.55 111.74-34.27 14.29-63.64 38.4-83.11 55.66-28.7 25.47-53.57 54.51-76.57 82.09-12.4 14.85.43 38.21 17.09 18.27 34.55-41.42 73.72-88.38 123.41-115.27q5.22-2.82 10.24-5.35c-2.28 15.55-2.52 33.31-.81 46.47 3.61 27.8 16.81 52 36.22 66.36C1310.82 1424.39 1346.82 1426.43 1373.79 1411.14zm-103.64-86.86c-.32-6.13.77-41.73 6.35-43.74 35.67-12.87 83.13-15.47 105.94 21 9.7 15.52 11.54 34.55 6.91 52.07-5.89 22.32-23.19 41.89-47.9 46-17.6 2.93-37.29-5.05-50-17C1274.68 1366.89 1271.32 1346.17 1270.15 1324.28zM1117 1236.34a73.45 73.45 0 10-21.38-101.66A73.56 73.56 0 001117 1236.34zm-13-71.27c2.42-17.19 12.54-32.19 27.07-40.15a54.85 54.85 0 0148.59-1.62c8.59 4 19.22 12.52 23.44 19.78 14.65 25.22 6 63.32-20.7 76.91a45.42 45.42 0 01-19.28 4.86C1132 1225.85 1099.37 1197.53 1103.92 1165.07z" transform="translate(-573.2 -816.24)"></path>
</svg>
