<svg xmlns="http://www.w3.org/2000/svg" xmlns:xlink="http://www.w3.org/1999/xlink" width="500" zoomAndPan="magnify" viewBox="0 0 375 374.999991" height="500" preserveAspectRatio="xMidYMid meet" version="1.0"><defs><g/><clipPath id="915df7cf4b"><rect x="0" width="84" y="0" height="153"/></clipPath><clipPath id="07695679e1"><rect x="0" width="253" y="0" height="105"/></clipPath><clipPath id="d0958757c2"><path d="M 262.289062 111.554688 L 355.289062 111.554688 L 355.289062 157.304688 L 262.289062 157.304688 Z M 262.289062 111.554688 " clip-rule="nonzero"/></clipPath><clipPath id="ec50adcb51"><path d="M 0.289062 0.601562 L 93 0.601562 L 93 46.199219 L 0.289062 46.199219 Z M 0.289062 0.601562 " clip-rule="nonzero"/></clipPath><clipPath id="723f68fc44"><rect x="0" width="94" y="0" height="47"/></clipPath><clipPath id="ca94ee4656"><path d="M 261.871094 217.582031 L 354.871094 217.582031 L 354.871094 263.332031 L 261.871094 263.332031 Z M 261.871094 217.582031 " clip-rule="nonzero"/></clipPath></defs><rect x="-37.5" width="450" fill="#ffffff" y="-37.499999" height="449.999989" fill-opacity="1"/><rect x="-37.5" width="450" fill="#ffffff" y="-37.499999" height="449.999989" fill-opacity="1"/><g transform="matrix(1, 0, 0, 1, 264, 96)"><g clip-path="url(#915df7cf4b)"><g fill="#1b1b1b" fill-opacity="1"><g transform="translate(1.334781, 124.548896)"><g><path d="M 24.453125 0.921875 C 17.710938 0.921875 12.5 -1.640625 8.8125 -6.765625 C 5.132812 -11.890625 3.296875 -18.75 3.296875 -27.34375 C 3.296875 -36.019531 5.1875 -42.921875 8.96875 -48.046875 C 12.757812 -53.171875 17.992188 -55.734375 24.671875 -55.734375 C 29.273438 -55.734375 32.816406 -54.71875 35.296875 -52.6875 C 37.773438 -50.65625 39.492188 -48.609375 40.453125 -46.546875 L 41.28125 -46.546875 L 41.28125 -54.59375 L 57.484375 -54.59375 L 57.484375 0 L 41.28125 0 L 41.28125 -8.765625 L 40.453125 -8.765625 C 39.421875 -6.566406 37.648438 -4.398438 35.140625 -2.265625 C 32.628906 -0.140625 29.066406 0.921875 24.453125 0.921875 Z M 30.546875 -11.96875 C 34.191406 -11.96875 36.910156 -13.5 38.703125 -16.5625 C 40.492188 -19.625 41.390625 -23.253906 41.390625 -27.453125 C 41.390625 -31.578125 40.492188 -35.171875 38.703125 -38.234375 C 36.910156 -41.296875 34.191406 -42.828125 30.546875 -42.828125 C 26.765625 -42.828125 23.992188 -41.328125 22.234375 -38.328125 C 20.484375 -35.335938 19.609375 -31.75 19.609375 -27.5625 C 19.609375 -23.289062 20.484375 -19.625 22.234375 -16.5625 C 23.992188 -13.5 26.765625 -11.96875 30.546875 -11.96875 Z M 30.546875 -11.96875 "/></g></g></g><g fill="#1b1b1b" fill-opacity="1"><g transform="translate(56.646168, 124.548896)"><g><path d="M 7.21875 -54.59375 L 23.21875 -54.59375 L 23.21875 0 L 7.21875 0 Z M 15.171875 -63.671875 C 12.703125 -63.671875 10.640625 -64.515625 8.984375 -66.203125 C 7.328125 -67.890625 6.5 -69.9375 6.5 -72.34375 C 6.5 -74.820312 7.328125 -76.90625 8.984375 -78.59375 C 10.640625 -80.28125 12.703125 -81.125 15.171875 -81.125 C 17.648438 -81.125 19.734375 -80.28125 21.421875 -78.59375 C 23.109375 -76.90625 23.953125 -74.820312 23.953125 -72.34375 C 23.953125 -69.9375 23.109375 -67.890625 21.421875 -66.203125 C 19.734375 -64.515625 17.648438 -63.671875 15.171875 -63.671875 Z M 15.171875 -63.671875 "/></g></g></g></g></g><g transform="matrix(1, 0, 0, 1, 11, 139)"><g clip-path="url(#07695679e1)"><g fill="#1b1b1b" fill-opacity="1"><g transform="translate(0.730543, 73.810091)"><g><path d="M 51.703125 -67.796875 L 50.984375 -67.796875 C 47.953125 -67.796875 45.628906 -67.4375 44.015625 -66.71875 C 42.398438 -66 41.175781 -64.898438 40.34375 -63.421875 C 39.519531 -61.941406 38.695312 -59.789062 37.875 -56.96875 L 24.671875 -11.140625 C 24.179688 -9.359375 23.9375 -8.019531 23.9375 -7.125 C 23.9375 -6.15625 24.265625 -5.359375 24.921875 -4.734375 C 25.578125 -4.117188 27.003906 -3.8125 29.203125 -3.8125 L 39.734375 -3.8125 C 44.617188 -3.8125 48.675781 -4.363281 51.90625 -5.46875 C 55.144531 -6.570312 57.828125 -8.238281 59.953125 -10.46875 C 62.085938 -12.707031 63.945312 -15.71875 65.53125 -19.5 L 67.5 -19.5 L 60.78125 0 L 1.75 0 L 1.75 -1.859375 C 5.332031 -1.859375 8.066406 -2.546875 9.953125 -3.921875 C 11.847656 -5.296875 13.347656 -7.875 14.453125 -11.65625 L 26.828125 -55.109375 C 27.929688 -59.035156 28.484375 -61.546875 28.484375 -62.640625 C 28.484375 -64.910156 27.675781 -66.335938 26.0625 -66.921875 C 24.445312 -67.503906 22.429688 -67.796875 20.015625 -67.796875 L 20.640625 -69.65625 L 52.328125 -69.65625 Z M 51.703125 -67.796875 "/></g></g></g><g fill="#1b1b1b" fill-opacity="1"><g transform="translate(62.336972, 73.810091)"><g><path d="M 17.75 -47.15625 C 18.851562 -47.15625 19.816406 -46.742188 20.640625 -45.921875 C 21.460938 -45.097656 21.875 -44.066406 21.875 -42.828125 C 21.875 -41.378906 21.53125 -39.488281 20.84375 -37.15625 L 13.828125 -13 C 13.140625 -10.25 12.796875 -8.320312 12.796875 -7.21875 C 12.796875 -6.46875 13.050781 -5.867188 13.5625 -5.421875 C 14.082031 -4.972656 14.65625 -4.75 15.28125 -4.75 C 17.195312 -4.75 19.894531 -6.46875 23.375 -9.90625 C 26.851562 -13.34375 30.171875 -17.585938 33.328125 -22.640625 C 36.492188 -27.703125 38.695312 -32.472656 39.9375 -36.953125 L 42.515625 -46.03125 L 50.265625 -46.03125 L 40.140625 -10.9375 C 39.523438 -8.457031 39.21875 -6.738281 39.21875 -5.78125 C 39.21875 -5.363281 39.367188 -4.984375 39.671875 -4.640625 C 39.984375 -4.296875 40.3125 -4.125 40.65625 -4.125 C 41.488281 -4.125 42.59375 -4.8125 43.96875 -6.1875 C 45.34375 -7.5625 46.613281 -9.144531 47.78125 -10.9375 L 49.234375 -9.796875 C 47.304688 -6.984375 45.082031 -4.441406 42.5625 -2.171875 C 40.050781 0.0976562 37.59375 1.234375 35.1875 1.234375 C 33.882812 1.234375 32.921875 0.738281 32.296875 -0.25 C 31.679688 -1.25 31.375 -2.335938 31.375 -3.515625 C 31.375 -6.265625 32.234375 -10.53125 33.953125 -16.3125 L 35.8125 -22.5 L 35.609375 -22.59375 C 31.960938 -16.476562 27.832031 -10.976562 23.21875 -6.09375 C 18.613281 -1.207031 14.453125 1.234375 10.734375 1.234375 C 6.804688 1.234375 4.84375 -1.101562 4.84375 -5.78125 C 4.84375 -6.945312 5.050781 -8.390625 5.46875 -10.109375 C 5.882812 -11.828125 6.609375 -14.476562 7.640625 -18.0625 L 12.390625 -34.578125 C 12.734375 -35.742188 12.988281 -36.6875 13.15625 -37.40625 C 13.332031 -38.132812 13.421875 -38.84375 13.421875 -39.53125 C 13.421875 -40.351562 13.265625 -40.914062 12.953125 -41.21875 C 12.640625 -41.53125 12.3125 -41.6875 11.96875 -41.6875 C 10.863281 -41.6875 9.78125 -41.117188 8.71875 -39.984375 C 7.65625 -38.847656 6.398438 -37.21875 4.953125 -35.09375 L 3.515625 -36.125 C 4.953125 -38.738281 7.007812 -41.226562 9.6875 -43.59375 C 12.375 -45.96875 15.0625 -47.15625 17.75 -47.15625 Z M 17.75 -47.15625 "/></g></g></g><g fill="#1b1b1b" fill-opacity="1"><g transform="translate(106.709797, 73.810091)"><g><path d="M 15.6875 -23.125 C 19.46875 -29.445312 23.679688 -35.03125 28.328125 -39.875 C 32.972656 -44.726562 37.222656 -47.15625 41.078125 -47.15625 C 43.140625 -47.15625 44.632812 -46.484375 45.5625 -45.140625 C 46.488281 -43.804688 46.953125 -42.242188 46.953125 -40.453125 C 46.953125 -37.773438 46.265625 -34.023438 44.890625 -29.203125 L 42.203125 -20.125 L 42.421875 -19.921875 C 46.816406 -27.828125 51.421875 -34.34375 56.234375 -39.46875 C 61.054688 -44.59375 65.566406 -47.15625 69.765625 -47.15625 C 71.066406 -47.15625 72.320312 -46.625 73.53125 -45.5625 C 74.738281 -44.5 75.34375 -42.726562 75.34375 -40.25 C 75.34375 -39.488281 75.238281 -38.523438 75.03125 -37.359375 C 74.820312 -36.191406 74.613281 -35.160156 74.40625 -34.265625 L 67.796875 -11.140625 C 67.660156 -10.734375 67.421875 -9.910156 67.078125 -8.671875 C 66.734375 -7.429688 66.5625 -6.5 66.5625 -5.875 C 66.5625 -4.644531 66.941406 -4.03125 67.703125 -4.03125 C 68.597656 -4.03125 69.816406 -4.851562 71.359375 -6.5 C 72.910156 -8.15625 74.203125 -9.703125 75.234375 -11.140625 L 76.578125 -9.90625 C 74.648438 -6.945312 72.289062 -4.347656 69.5 -2.109375 C 66.71875 0.117188 64.296875 1.234375 62.234375 1.234375 C 61.472656 1.234375 60.679688 0.90625 59.859375 0.25 C 59.035156 -0.394531 58.625 -1.507812 58.625 -3.09375 C 58.625 -5.09375 59.242188 -8.289062 60.484375 -12.6875 L 65.953125 -31.890625 C 66.773438 -34.640625 67.1875 -36.804688 67.1875 -38.390625 C 67.1875 -39.210938 66.960938 -39.914062 66.515625 -40.5 C 66.066406 -41.09375 65.5 -41.390625 64.8125 -41.390625 C 62.613281 -41.390625 60.253906 -40.179688 57.734375 -37.765625 C 55.222656 -35.359375 52.523438 -32.09375 49.640625 -27.96875 C 47.023438 -24.25 44.785156 -20.671875 42.921875 -17.234375 C 41.066406 -13.796875 39.867188 -11.113281 39.328125 -9.1875 C 37.597656 -3.613281 36.664062 -0.550781 36.53125 0 L 28.796875 0 L 37.15625 -29.515625 C 37.5 -30.617188 37.894531 -32.082031 38.34375 -33.90625 C 38.789062 -35.726562 39.015625 -37.222656 39.015625 -38.390625 C 39.015625 -39.285156 38.753906 -39.988281 38.234375 -40.5 C 37.722656 -41.019531 37.125 -41.28125 36.4375 -41.28125 C 34.363281 -41.28125 31.882812 -40.003906 29 -37.453125 C 26.113281 -34.910156 23.222656 -31.472656 20.328125 -27.140625 C 18.128906 -23.910156 16.375 -21.003906 15.0625 -18.421875 C 13.757812 -15.835938 12.453125 -12.414062 11.140625 -8.15625 C 9.703125 -3.269531 8.945312 -0.550781 8.875 0 L 0.921875 0 L 11.046875 -35.40625 C 11.660156 -37.46875 11.96875 -38.976562 11.96875 -39.9375 C 11.96875 -42.132812 10.832031 -43.234375 8.5625 -43.234375 C 7.1875 -43.234375 6.050781 -43.097656 5.15625 -42.828125 L 5.15625 -44.6875 L 20.53125 -47.15625 L 22.390625 -47.15625 L 15.484375 -23.328125 Z M 15.6875 -23.125 "/></g></g></g><g fill="#1b1b1b" fill-opacity="1"><g transform="translate(179.048548, 73.810091)"><g><path d="M 24.5625 -67.796875 C 26.007812 -67.796875 27.25 -67.28125 28.28125 -66.25 C 29.3125 -65.21875 29.828125 -64.015625 29.828125 -62.640625 C 29.828125 -61.203125 29.3125 -59.960938 28.28125 -58.921875 C 27.25 -57.890625 26.007812 -57.375 24.5625 -57.375 C 23.1875 -57.375 21.984375 -57.890625 20.953125 -58.921875 C 19.921875 -59.960938 19.40625 -61.203125 19.40625 -62.640625 C 19.40625 -64.015625 19.921875 -65.21875 20.953125 -66.25 C 21.984375 -67.28125 23.1875 -67.796875 24.5625 -67.796875 Z M 14.453125 -9.1875 C 13.898438 -7.394531 13.625 -6.15625 13.625 -5.46875 C 13.625 -4.363281 14.207031 -3.8125 15.375 -3.8125 C 16.195312 -3.8125 17.347656 -4.445312 18.828125 -5.71875 C 20.304688 -7 21.835938 -8.878906 23.421875 -11.359375 L 25.078125 -10.3125 C 22.804688 -6.8125 20.257812 -4.007812 17.4375 -1.90625 C 14.613281 0.1875 12.035156 1.234375 9.703125 1.234375 C 8.328125 1.234375 7.273438 0.789062 6.546875 -0.09375 C 5.828125 -0.988281 5.46875 -2.195312 5.46875 -3.71875 C 5.46875 -4.8125 5.675781 -6.082031 6.09375 -7.53125 L 14.34375 -35.921875 C 14.820312 -37.640625 15.0625 -38.84375 15.0625 -39.53125 C 15.0625 -40.425781 14.75 -41.21875 14.125 -41.90625 C 13.507812 -42.59375 12.585938 -42.9375 11.359375 -42.9375 C 10.867188 -42.9375 9.5625 -42.765625 7.4375 -42.421875 L 7.953125 -44.171875 L 23.640625 -47.15625 L 25.390625 -47.15625 Z M 14.453125 -9.1875 "/></g></g></g><g fill="#1b1b1b" fill-opacity="1"><g transform="translate(199.789641, 73.810091)"><g><path d="M 32.609375 -47.15625 C 34.535156 -47.15625 36.222656 -46.570312 37.671875 -45.40625 C 39.117188 -44.238281 40.113281 -42.65625 40.65625 -40.65625 L 40.875 -40.65625 L 42.3125 -46.03125 L 50.46875 -47.15625 L 33.234375 12.796875 C 32.890625 14.109375 32.71875 15.175781 32.71875 16 C 32.71875 17.71875 33.25 18.800781 34.3125 19.25 C 35.382812 19.695312 36.984375 19.953125 39.109375 20.015625 L 38.59375 21.875 L 14.03125 21.875 L 14.546875 20.015625 C 17.160156 19.953125 19.050781 19.800781 20.21875 19.5625 C 21.394531 19.320312 22.378906 18.753906 23.171875 17.859375 C 23.960938 16.960938 24.664062 15.515625 25.28125 13.515625 L 33.75 -15.890625 L 33.546875 -16.09375 C 25.492188 -4.539062 18.578125 1.234375 12.796875 1.234375 C 10.390625 1.234375 8.273438 0.0507812 6.453125 -2.3125 C 4.628906 -4.6875 3.71875 -7.941406 3.71875 -12.078125 C 3.71875 -17.171875 5.210938 -22.46875 8.203125 -27.96875 C 11.191406 -33.46875 14.957031 -38.039062 19.5 -41.6875 C 24.039062 -45.332031 28.410156 -47.15625 32.609375 -47.15625 Z M 19.09375 -33.125 C 16.957031 -29.613281 15.269531 -26.035156 14.03125 -22.390625 C 12.789062 -18.742188 12.171875 -15.546875 12.171875 -12.796875 C 12.171875 -10.109375 12.738281 -8.144531 13.875 -6.90625 C 15.007812 -5.675781 16.300781 -5.0625 17.75 -5.0625 C 20.78125 -5.0625 23.960938 -6.953125 27.296875 -10.734375 C 30.628906 -14.515625 33.429688 -19.050781 35.703125 -24.34375 C 37.972656 -29.644531 39.109375 -34.289062 39.109375 -38.28125 C 39.109375 -40.488281 38.421875 -42.191406 37.046875 -43.390625 C 35.671875 -44.597656 34.191406 -45.203125 32.609375 -45.203125 C 28.273438 -45.203125 23.769531 -41.175781 19.09375 -33.125 Z M 19.09375 -33.125 "/></g></g></g></g></g><g clip-path="url(#d0958757c2)"><g transform="matrix(1, 0, 0, 1, 262, 111)"><g clip-path="url(#723f68fc44)"><g clip-path="url(#ec50adcb51)"><path fill="#da891e" d="M 0.289062 0.628906 L 0.289062 46.125 L 1.941406 44.476562 L 3.589844 46.125 L 3.589844 3.929688 L 89.6875 3.929688 L 89.6875 46.125 L 91.335938 44.476562 L 92.984375 46.125 L 92.984375 0.628906 Z M 0.289062 0.628906 " fill-opacity="1" fill-rule="nonzero"/></g></g></g></g><g clip-path="url(#ca94ee4656)"><path fill="#da891e" d="M 261.871094 263.363281 L 261.871094 217.660156 L 263.53125 219.316406 L 265.1875 217.660156 L 265.1875 260.046875 L 351.675781 260.046875 L 351.675781 217.660156 L 353.332031 219.316406 L 354.988281 217.660156 L 354.988281 263.363281 Z M 261.871094 263.363281 " fill-opacity="1" fill-rule="nonzero"/></g></svg>