<svg xmlns="http://www.w3.org/2000/svg" xmlns:xlink="http://www.w3.org/1999/xlink" width="500" zoomAndPan="magnify" viewBox="0 0 375 374.999991" height="500" preserveAspectRatio="xMidYMid meet" version="1.0"><defs><g/><clipPath id="6ad0fbdff7"><rect x="0" width="73" y="0" height="132"/></clipPath><clipPath id="ef464de3c9"><rect x="0" width="218" y="0" height="90"/></clipPath><clipPath id="a0df149c15"><path d="M 253.074219 125.628906 L 332.574219 125.628906 L 332.574219 164.628906 L 253.074219 164.628906 Z M 253.074219 125.628906 " clip-rule="nonzero"/></clipPath><clipPath id="53d4045e2d"><path d="M 0.0742188 0.921875 L 79.574219 0.921875 L 79.574219 39.628906 L 0.0742188 39.628906 Z M 0.0742188 0.921875 " clip-rule="nonzero"/></clipPath><clipPath id="8d68fb1fe6"><rect x="0" width="80" y="0" height="40"/></clipPath><clipPath id="2978761581"><path d="M 252.710938 216.898438 L 332.960938 216.898438 L 332.960938 256.648438 L 252.710938 256.648438 Z M 252.710938 216.898438 " clip-rule="nonzero"/></clipPath></defs><rect x="-37.5" width="450" fill="#ffffff" y="-37.499999" height="449.999989" fill-opacity="1"/><rect x="-37.5" width="450" fill="#737373" y="-37.499999" height="449.999989" fill-opacity="1"/><g transform="matrix(1, 0, 0, 1, 254, 112)"><g clip-path="url(#6ad0fbdff7)"><g fill="#ffffff" fill-opacity="1"><g transform="translate(1.69255, 107.452903)"><g><path d="M 21.0625 0.796875 C 15.25 0.796875 10.757812 -1.40625 7.59375 -5.8125 C 4.425781 -10.226562 2.84375 -16.140625 2.84375 -23.546875 C 2.84375 -31.003906 4.46875 -36.9375 7.71875 -41.34375 C 10.976562 -45.757812 15.484375 -47.96875 21.234375 -47.96875 C 25.203125 -47.96875 28.25 -47.09375 30.375 -45.34375 C 32.507812 -43.601562 33.992188 -41.84375 34.828125 -40.0625 L 35.53125 -40.0625 L 35.53125 -47 L 49.484375 -47 L 49.484375 0 L 35.53125 0 L 35.53125 -7.546875 L 34.828125 -7.546875 C 33.941406 -5.648438 32.414062 -3.785156 30.25 -1.953125 C 28.09375 -0.117188 25.03125 0.796875 21.0625 0.796875 Z M 26.296875 -10.3125 C 29.429688 -10.3125 31.769531 -11.628906 33.3125 -14.265625 C 34.851562 -16.898438 35.625 -20.019531 35.625 -23.625 C 35.625 -27.1875 34.851562 -30.285156 33.3125 -32.921875 C 31.769531 -35.554688 29.429688 -36.875 26.296875 -36.875 C 23.035156 -36.875 20.648438 -35.582031 19.140625 -33 C 17.628906 -30.425781 16.875 -27.332031 16.875 -23.71875 C 16.875 -20.050781 17.628906 -16.898438 19.140625 -14.265625 C 20.648438 -11.628906 23.035156 -10.3125 26.296875 -10.3125 Z M 26.296875 -10.3125 "/></g></g></g><g fill="#ffffff" fill-opacity="1"><g transform="translate(49.30575, 107.452903)"><g><path d="M 6.21875 -47 L 19.984375 -47 L 19.984375 0 L 6.21875 0 Z M 13.0625 -54.8125 C 10.925781 -54.8125 9.144531 -55.535156 7.71875 -56.984375 C 6.300781 -58.441406 5.59375 -60.207031 5.59375 -62.28125 C 5.59375 -64.414062 6.300781 -66.207031 7.71875 -67.65625 C 9.144531 -69.101562 10.925781 -69.828125 13.0625 -69.828125 C 15.195312 -69.828125 16.988281 -69.101562 18.4375 -67.65625 C 19.882812 -66.207031 20.609375 -64.414062 20.609375 -62.28125 C 20.609375 -60.207031 19.882812 -58.441406 18.4375 -56.984375 C 16.988281 -55.535156 15.195312 -54.8125 13.0625 -54.8125 Z M 13.0625 -54.8125 "/></g></g></g></g></g><g transform="matrix(1, 0, 0, 1, 36, 150)"><g clip-path="url(#ef464de3c9)"><g fill="#ffffff" fill-opacity="1"><g transform="translate(1.384714, 62.79118)"><g><path d="M 44.515625 -58.375 L 43.890625 -58.375 C 41.285156 -58.375 39.285156 -58.0625 37.890625 -57.4375 C 36.492188 -56.8125 35.441406 -55.863281 34.734375 -54.59375 C 34.023438 -53.320312 33.316406 -51.472656 32.609375 -49.046875 L 21.234375 -9.59375 C 20.816406 -8.050781 20.609375 -6.894531 20.609375 -6.125 C 20.609375 -5.300781 20.890625 -4.617188 21.453125 -4.078125 C 22.015625 -3.546875 23.242188 -3.28125 25.140625 -3.28125 L 34.203125 -3.28125 C 38.410156 -3.28125 41.90625 -3.753906 44.6875 -4.703125 C 47.46875 -5.648438 49.773438 -7.085938 51.609375 -9.015625 C 53.453125 -10.941406 55.054688 -13.535156 56.421875 -16.796875 L 58.109375 -16.796875 L 52.328125 0 L 1.515625 0 L 1.515625 -1.59375 C 4.585938 -1.59375 6.9375 -2.1875 8.5625 -3.375 C 10.195312 -4.5625 11.488281 -6.785156 12.4375 -10.046875 L 23.09375 -47.4375 C 24.039062 -50.8125 24.515625 -52.972656 24.515625 -53.921875 C 24.515625 -55.878906 23.816406 -57.109375 22.421875 -57.609375 C 21.035156 -58.117188 19.304688 -58.375 17.234375 -58.375 L 17.765625 -59.96875 L 45.046875 -59.96875 Z M 44.515625 -58.375 "/></g></g></g><g fill="#ffffff" fill-opacity="1"><g transform="translate(54.416818, 62.79118)"><g><path d="M 15.28125 -40.609375 C 16.226562 -40.609375 17.054688 -40.25 17.765625 -39.53125 C 18.472656 -38.820312 18.828125 -37.9375 18.828125 -36.875 C 18.828125 -35.625 18.535156 -33.992188 17.953125 -31.984375 L 11.90625 -11.1875 C 11.3125 -8.820312 11.015625 -7.164062 11.015625 -6.21875 C 11.015625 -5.5625 11.234375 -5.039062 11.671875 -4.65625 C 12.117188 -4.28125 12.613281 -4.09375 13.15625 -4.09375 C 14.8125 -4.09375 17.132812 -5.570312 20.125 -8.53125 C 23.113281 -11.488281 25.96875 -15.144531 28.6875 -19.5 C 31.414062 -23.851562 33.3125 -27.957031 34.375 -31.8125 L 36.609375 -39.625 L 43.265625 -39.625 L 34.5625 -9.421875 C 34.03125 -7.285156 33.765625 -5.800781 33.765625 -4.96875 C 33.765625 -4.613281 33.894531 -4.285156 34.15625 -3.984375 C 34.425781 -3.691406 34.707031 -3.546875 35 -3.546875 C 35.71875 -3.546875 36.664062 -4.140625 37.84375 -5.328125 C 39.03125 -6.515625 40.128906 -7.878906 41.140625 -9.421875 L 42.375 -8.4375 C 40.71875 -6.007812 38.804688 -3.816406 36.640625 -1.859375 C 34.484375 0.0859375 32.367188 1.0625 30.296875 1.0625 C 29.171875 1.0625 28.34375 0.632812 27.8125 -0.21875 C 27.28125 -1.082031 27.015625 -2.015625 27.015625 -3.015625 C 27.015625 -5.390625 27.753906 -9.0625 29.234375 -14.03125 L 30.828125 -19.375 L 30.65625 -19.453125 C 27.507812 -14.179688 23.953125 -9.441406 19.984375 -5.234375 C 16.015625 -1.035156 12.429688 1.0625 9.234375 1.0625 C 5.859375 1.0625 4.171875 -0.945312 4.171875 -4.96875 C 4.171875 -5.976562 4.347656 -7.222656 4.703125 -8.703125 C 5.054688 -10.179688 5.679688 -12.460938 6.578125 -15.546875 L 10.65625 -29.765625 C 10.957031 -30.765625 11.179688 -31.578125 11.328125 -32.203125 C 11.472656 -32.828125 11.546875 -33.4375 11.546875 -34.03125 C 11.546875 -34.738281 11.410156 -35.222656 11.140625 -35.484375 C 10.878906 -35.753906 10.601562 -35.890625 10.3125 -35.890625 C 9.363281 -35.890625 8.425781 -35.398438 7.5 -34.421875 C 6.582031 -33.453125 5.503906 -32.046875 4.265625 -30.203125 L 3.015625 -31.09375 C 4.265625 -33.34375 6.039062 -35.488281 8.34375 -37.53125 C 10.65625 -39.582031 12.96875 -40.609375 15.28125 -40.609375 Z M 15.28125 -40.609375 "/></g></g></g><g fill="#ffffff" fill-opacity="1"><g transform="translate(92.613876, 62.79118)"><g><path d="M 13.5 -19.90625 C 16.757812 -25.351562 20.390625 -30.164062 24.390625 -34.34375 C 28.390625 -38.519531 32.046875 -40.609375 35.359375 -40.609375 C 37.140625 -40.609375 38.425781 -40.03125 39.21875 -38.875 C 40.019531 -37.71875 40.421875 -36.367188 40.421875 -34.828125 C 40.421875 -32.515625 39.828125 -29.285156 38.640625 -25.140625 L 36.34375 -17.328125 L 36.515625 -17.140625 C 40.304688 -23.953125 44.273438 -29.566406 48.421875 -33.984375 C 52.566406 -38.398438 56.445312 -40.609375 60.0625 -40.609375 C 61.1875 -40.609375 62.265625 -40.144531 63.296875 -39.21875 C 64.335938 -38.300781 64.859375 -36.78125 64.859375 -34.65625 C 64.859375 -34 64.769531 -33.164062 64.59375 -32.15625 C 64.414062 -31.15625 64.238281 -30.269531 64.0625 -29.5 L 58.375 -9.59375 C 58.25 -9.238281 58.035156 -8.523438 57.734375 -7.453125 C 57.441406 -6.390625 57.296875 -5.59375 57.296875 -5.0625 C 57.296875 -4 57.625 -3.46875 58.28125 -3.46875 C 59.050781 -3.46875 60.101562 -4.175781 61.4375 -5.59375 C 62.769531 -7.019531 63.878906 -8.351562 64.765625 -9.59375 L 65.921875 -8.53125 C 64.265625 -5.976562 62.234375 -3.738281 59.828125 -1.8125 C 57.429688 0.101562 55.347656 1.0625 53.578125 1.0625 C 52.921875 1.0625 52.238281 0.78125 51.53125 0.21875 C 50.820312 -0.34375 50.46875 -1.304688 50.46875 -2.671875 C 50.46875 -4.378906 51 -7.128906 52.0625 -10.921875 L 56.765625 -27.453125 C 57.484375 -29.816406 57.84375 -31.679688 57.84375 -33.046875 C 57.84375 -33.753906 57.648438 -34.359375 57.265625 -34.859375 C 56.878906 -35.367188 56.390625 -35.625 55.796875 -35.625 C 53.898438 -35.625 51.867188 -34.585938 49.703125 -32.515625 C 47.546875 -30.441406 45.222656 -27.628906 42.734375 -24.078125 C 40.484375 -20.878906 38.554688 -17.796875 36.953125 -14.828125 C 35.359375 -11.867188 34.320312 -9.5625 33.84375 -7.90625 C 32.363281 -3.101562 31.566406 -0.46875 31.453125 0 L 24.78125 0 L 31.984375 -25.40625 C 32.273438 -26.351562 32.613281 -27.613281 33 -29.1875 C 33.382812 -30.757812 33.578125 -32.046875 33.578125 -33.046875 C 33.578125 -33.816406 33.351562 -34.421875 32.90625 -34.859375 C 32.46875 -35.304688 31.953125 -35.53125 31.359375 -35.53125 C 29.585938 -35.53125 27.457031 -34.4375 24.96875 -32.25 C 22.476562 -30.0625 19.988281 -27.097656 17.5 -23.359375 C 15.601562 -20.578125 14.09375 -18.078125 12.96875 -15.859375 C 11.84375 -13.640625 10.71875 -10.691406 9.59375 -7.015625 C 8.351562 -2.804688 7.703125 -0.46875 7.640625 0 L 0.796875 0 L 9.5 -30.46875 C 10.039062 -32.25 10.3125 -33.550781 10.3125 -34.375 C 10.3125 -36.269531 9.332031 -37.21875 7.375 -37.21875 C 6.1875 -37.21875 5.207031 -37.101562 4.4375 -36.875 L 4.4375 -38.46875 L 17.6875 -40.609375 L 19.28125 -40.609375 L 13.328125 -20.078125 Z M 13.5 -19.90625 "/></g></g></g><g fill="#ffffff" fill-opacity="1"><g transform="translate(154.884589, 62.79118)"><g><path d="M 21.140625 -58.375 C 22.390625 -58.375 23.457031 -57.925781 24.34375 -57.03125 C 25.226562 -56.144531 25.671875 -55.109375 25.671875 -53.921875 C 25.671875 -52.679688 25.226562 -51.613281 24.34375 -50.71875 C 23.457031 -49.832031 22.390625 -49.390625 21.140625 -49.390625 C 19.960938 -49.390625 18.925781 -49.832031 18.03125 -50.71875 C 17.144531 -51.613281 16.703125 -52.679688 16.703125 -53.921875 C 16.703125 -55.109375 17.144531 -56.144531 18.03125 -57.03125 C 18.925781 -57.925781 19.960938 -58.375 21.140625 -58.375 Z M 12.4375 -7.90625 C 11.96875 -6.363281 11.734375 -5.296875 11.734375 -4.703125 C 11.734375 -3.753906 12.234375 -3.28125 13.234375 -3.28125 C 13.941406 -3.28125 14.929688 -3.828125 16.203125 -4.921875 C 17.484375 -6.023438 18.804688 -7.640625 20.171875 -9.765625 L 21.59375 -8.890625 C 19.632812 -5.867188 17.441406 -3.453125 15.015625 -1.640625 C 12.585938 0.160156 10.363281 1.0625 8.34375 1.0625 C 7.164062 1.0625 6.265625 0.675781 5.640625 -0.09375 C 5.015625 -0.863281 4.703125 -1.898438 4.703125 -3.203125 C 4.703125 -4.148438 4.878906 -5.242188 5.234375 -6.484375 L 12.34375 -30.921875 C 12.757812 -32.398438 12.96875 -33.4375 12.96875 -34.03125 C 12.96875 -34.800781 12.703125 -35.476562 12.171875 -36.0625 C 11.640625 -36.65625 10.835938 -36.953125 9.765625 -36.953125 C 9.359375 -36.953125 8.234375 -36.804688 6.390625 -36.515625 L 6.84375 -38.03125 L 20.34375 -40.609375 L 21.859375 -40.609375 Z M 12.4375 -7.90625 "/></g></g></g><g fill="#ffffff" fill-opacity="1"><g transform="translate(172.738956, 62.79118)"><g><path d="M 28.078125 -40.609375 C 29.734375 -40.609375 31.179688 -40.101562 32.421875 -39.09375 C 33.671875 -38.082031 34.53125 -36.71875 35 -35 L 35.1875 -35 L 36.421875 -39.625 L 43.4375 -40.609375 L 28.609375 11.015625 C 28.304688 12.140625 28.15625 13.054688 28.15625 13.765625 C 28.15625 15.242188 28.613281 16.175781 29.53125 16.5625 C 30.457031 16.945312 31.835938 17.171875 33.671875 17.234375 L 33.234375 18.828125 L 12.078125 18.828125 L 12.53125 17.234375 C 14.78125 17.171875 16.40625 17.035156 17.40625 16.828125 C 18.414062 16.628906 19.257812 16.144531 19.9375 15.375 C 20.625 14.601562 21.234375 13.359375 21.765625 11.640625 L 29.046875 -13.6875 L 28.875 -13.859375 C 21.945312 -3.910156 15.992188 1.0625 11.015625 1.0625 C 8.941406 1.0625 7.117188 0.0390625 5.546875 -2 C 3.984375 -4.039062 3.203125 -6.835938 3.203125 -10.390625 C 3.203125 -14.773438 4.488281 -19.335938 7.0625 -24.078125 C 9.632812 -28.816406 12.875 -32.753906 16.78125 -35.890625 C 20.695312 -39.035156 24.460938 -40.609375 28.078125 -40.609375 Z M 16.4375 -28.515625 C 14.601562 -25.492188 13.148438 -22.414062 12.078125 -19.28125 C 11.015625 -16.144531 10.484375 -13.390625 10.484375 -11.015625 C 10.484375 -8.703125 10.972656 -7.015625 11.953125 -5.953125 C 12.929688 -4.890625 14.039062 -4.359375 15.28125 -4.359375 C 17.882812 -4.359375 20.625 -5.984375 23.5 -9.234375 C 26.375 -12.492188 28.785156 -16.40625 30.734375 -20.96875 C 32.691406 -25.53125 33.671875 -29.53125 33.671875 -32.96875 C 33.671875 -34.851562 33.078125 -36.3125 31.890625 -37.34375 C 30.710938 -38.382812 29.441406 -38.90625 28.078125 -38.90625 C 24.347656 -38.90625 20.46875 -35.441406 16.4375 -28.515625 Z M 16.4375 -28.515625 "/></g></g></g></g></g><g clip-path="url(#a0df149c15)"><g transform="matrix(1, 0, 0, 1, 253, 125)"><g clip-path="url(#8d68fb1fe6)"><g clip-path="url(#53d4045e2d)"><path fill="#da891e" d="M 0.0742188 0.691406 L 0.0742188 39.859375 L 1.492188 38.4375 L 2.914062 39.859375 L 2.914062 3.535156 L 77.023438 3.535156 L 77.023438 39.859375 L 78.445312 38.4375 L 79.867188 39.859375 L 79.867188 0.691406 Z M 0.0742188 0.691406 " fill-opacity="1" fill-rule="nonzero"/></g></g></g></g><g clip-path="url(#2978761581)"><path fill="#da891e" d="M 252.710938 256.304688 L 252.710938 216.964844 L 254.140625 218.390625 L 255.566406 216.964844 L 255.566406 253.453125 L 330.015625 253.453125 L 330.015625 216.964844 L 331.441406 218.390625 L 332.867188 216.964844 L 332.867188 256.304688 Z M 252.710938 256.304688 " fill-opacity="1" fill-rule="nonzero"/></g></svg>