<svg xmlns="http://www.w3.org/2000/svg" width="512" height="512" id="office-building">
  <path d="M303.993 76.3071C307.74 76.6482 309.999 77.9755 310.282 81.747C311.527 98.2989 310.803 120.252 310.95 137.467C319.594 137.636 335.983 140.951 339.231 150.614C340.86 155.462 340.015 167.283 339.997 172.739C368.582 176.218 374.521 167.407 374.356 199.34L374.484 291.223C382.763 290.881 391.06 291.239 399.342 290.972L421.62 290.131C425.61 289.972 430.295 289.27 434.233 290.003C441.555 291.366 465.678 301.504 467.501 310.236C468.743 316.186 467.97 328.015 467.963 334.474L467.944 383.484C467.953 393.137 467.421 404.037 468.703 413.61C490.053 408.793 505.321 404.464 523.464 422.308C529.847 428.586 539.289 438.758 534.346 448.404C525.574 465.523 528.651 462.314 528.811 483.423C536.66 483.603 544.547 483.504 552.399 483.477C557.161 483.461 570.416 481.556 568.355 490.435C567.86 492.567 566.198 493.87 564.396 494.912C556.337 495.416 548.101 495.098 540.023 495.095L496.703 495.086C446.125 495.083 395.493 494.596 344.922 495.16C323.897 494.783 302.818 495.086 281.788 495.086L114.028 495.079C107.124 495.078 98.7228 495.649 91.9916 495.177C87.7315 494.879 84.1603 489.055 87.4354 485.644C91.57 481.338 105.935 483.583 111.49 483.495L111.521 446.956C111.479 435.309 109.109 423.855 119.518 415.384C123.578 412.08 129.224 411.526 133.993 409.696C149.609 403.705 156.268 396.499 176.107 398.702L176.1 329.448C176.1 321.909 175.198 290.58 177.007 285.298C181.455 272.309 194.44 278.202 203.066 281.019C214.934 284.896 226.765 288.805 238.416 293.298C238.775 282.948 238.624 272.567 238.624 262.212L238.575 194.714C238.444 169.637 247.11 174.187 271.497 172.788C271.573 147.098 269.315 140.507 299.03 137.4C298.632 118.452 298.804 99.3743 299.013 80.4229C300.214 78.2895 301.65 77.0475 303.993 76.3071Z" transform="scale(.8)"></path>
  <path fill="#8D5E3F" d="M375.094 442.504C385.229 442.405 395.417 442.315 405.547 442.602 406.13 447.839 407.524 452.604 409.615 457.432 398.208 457.39 386.712 457.713 375.318 457.225 374.932 452.311 375.017 447.427 375.094 442.504zM374.807 414.716C391.259 415.101 407.858 414.175 424.281 414.945 420.651 416.698 418.592 419.559 416.091 422.586 414.059 425.125 412.036 427.647 410.188 430.327 398.413 429.838 386.561 430.186 374.77 430.089 375.041 424.941 374.855 419.863 374.807 414.716zM301.298 149.816C308.201 149.286 321.77 149.243 327.079 154.18 329.434 156.369 328.497 168.026 328.489 171.422 323.005 170.293 317.657 169.736 312.07 169.484 302.531 169.259 292.912 169.724 283.396 170.364 283.386 165.26 282.879 159.423 283.856 154.405 288.731 150.644 295.379 150.209 301.298 149.816z" transform="scale(.8)"></path>
  <path fill="#FFBEB1" d="M274.044 184.819C278.85 184.531 283.649 183.708 288.408 183.005C289.045 191.747 288.701 200.683 288.698 209.449L288.694 433.857C288.676 445.79 286.127 453.308 292.795 463.391L292.835 468.07C292.935 473.198 293.511 478.289 293.696 483.409C287.218 483.489 280.737 483.536 274.26 483.71C274.262 479.642 274.217 475.569 274.342 471.502C273.881 447.409 274.237 423.248 274.237 399.149L274.244 214.703C274.245 204.758 274.492 194.752 274.044 184.819Z" transform="scale(.8)"></path>
  <path fill="#fff" d="M296.466 181.608C302.535 181.56 308.605 181.488 314.674 181.546C313.46 193.946 314.132 206.843 314.134 219.309L314.136 383.569C314.136 402.333 313.636 421.229 314.434 439.973C314.097 444.188 314.276 448.525 314.458 452.747C309.062 452.818 297.332 455.412 297.137 449.576L297.136 274.267C297.135 243.375 297.493 212.481 296.466 181.608Z" transform="scale(.8)"></path>
  <path fill="#FFBEB1" d="M324.006 183.331C328.207 183.598 332.497 183.852 336.659 184.478C337.533 198.274 337.497 211.849 337.497 225.677L337.481 456.346C337.478 465.443 337.037 474.802 337.86 483.86C323.774 482.766 309.398 483.666 295.263 483.438C294.522 468.342 295.649 463.85 297.137 449.576C297.332 455.412 309.062 452.818 314.458 452.747C314.276 448.525 314.097 444.188 314.434 439.973C314.808 446.07 312.382 455.582 317.349 460.3C327.318 469.769 324.019 426.898 324.017 424.56L324.006 183.331Z" transform="scale(.8)"></path>
  <path fill="#8D5E3F" d="M250.339 186.059C254.299 185.902 258.263 185.7 262.224 185.635 262.107 191.381 262.328 197.074 262.356 202.812L262.357 429.666C262.356 444.124 261.847 458.749 262.639 473.178 262.845 476.633 262.8 480.117 262.838 483.577 216.387 482.737 169.864 484.321 123.415 483.387 123.106 475.221 122.828 466.976 123.464 458.821 145.514 476.276 210.044 477.014 235.894 461.752 249.847 451.345 250.651 445.036 250.508 429.18L250.49 245.082C250.489 225.455 250.997 205.669 250.339 186.059zM423.723 301.69C435.19 300.489 446.25 308.032 456.365 313.446 455.992 324.704 456.298 336.049 456.297 347.319L456.338 409.365C451.661 409.324 434.732 412.162 432.765 411.667 434.325 408.267 431.986 405.124 429.291 403.02L428.953 402.762C419.624 400.67 386.214 402.56 374.863 402.321 375.045 397.083 374.994 391.827 375.021 386.586 381.776 386.795 439.234 388.059 442.368 385.433 446.4 382.054 443.985 375.634 439.096 374.925 425.419 372.942 390.981 373.76 376.173 374.35L375.435 374.227C374.492 372.673 375.113 361.022 375.225 358.559L415.061 358.564C421.404 358.567 451.079 362.233 443.375 348.717 436.851 344.309 422.615 346.246 415.081 346.245L374.994 346.259 375.019 330.33 417.859 330.3C421.909 330.3 439.894 331.561 442.644 329.372 444.816 327.643 445.547 322.201 443.627 320.08 440.779 316.934 381.877 318.474 374.746 318.33 375.054 313.294 374.987 308.24 374.903 303.198 391.161 302.612 407.499 302.997 423.723 301.69z" transform="scale(.8)"></path>
  <path fill="#8D5E3F" d="M349.524 185.136C353.805 185.256 357.987 185.612 362.231 186.16L363.352 431.723C363.366 440.707 362.613 457.694 364.293 465.676 365.734 472.524 417.299 469.41 420.299 468.337 421.699 467.836 422.165 466.718 422.8 465.484 452.667 477.261 487.106 478.205 517.45 467.436L517.323 472.678 517.272 483.696C507.599 483.273 497.864 483.488 488.181 483.488L384.498 483.49C372.915 483.491 361.298 483.317 349.721 483.673 349.455 461.026 349.669 438.351 349.668 415.701L349.647 197.032C349.603 193.097 349.296 189.056 349.524 185.136zM188.459 289.04C205.805 293.487 222.297 300.865 239.386 306.134 239.995 318.488 239.591 331.014 239.591 343.392L239.586 408.331C239.57 416.468 239.025 424.487 239.303 432.638 226.524 423.517 214.717 422.331 204.031 415.79 198.853 412.621 194.327 405.79 188.491 401.83 187.941 395.686 188.09 389.459 188.089 383.295L188.087 357.577C188.087 334.755 187.654 311.848 188.459 289.04z" transform="scale(.8)"></path>
  <path d="M206.312 390.375C219.064 389.11 237.696 402.658 221.294 405.844 210.829 406.016 189.693 397.093 206.312 390.375zM205.501 335.378C217.187 334.687 237.9 348.846 223.113 351.565 217.347 351.277 195.206 349.073 200.871 338.292 201.839 336.45 203.621 335.892 205.501 335.378zM205.036 307.843C209.155 307.577 235.073 315.346 227.594 323.17 226.532 324.28 224.683 324.155 223.262 324.234 217.19 324.077 203.564 322.715 200.153 317.371 199.257 313.29 201.241 309.421 205.036 307.843zM206.221 362.879C224.909 361.655 235.865 379.828 222.111 378.617 217.169 378.116 194.157 376.482 200.241 366.259 201.521 364.107 203.968 363.48 206.221 362.879z" transform="scale(.8)"></path>
</svg>
