<svg xmlns="http://www.w3.org/2000/svg" viewBox="0 0 48 48" id="term">
  <path fill="#d8e5ea" d="M16 44h24c2.2 0 4-1.8 4-4H20l-4 4z"></path>
  <path fill="#e7f0f3" d="M40 40V8c0-2.2-1.8-4-4-4H8c2.2 0 4 1.8 4 4v32c0 2.2 1.8 4 4 4s4-1.8 4-4h24"></path>
  <path fill="#010101" d="M40 9c-.6 0-1-.4-1-1 0-1.7-1.3-3-3-3-.6 0-1-.4-1-1s.4-1 1-1c2.8 0 5 2.2 5 5 0 .6-.4 1-1 1zM12 9c-.6 0-1-.4-1-1 0-1.7-1.3-3-3-3-.6 0-1-.4-1-1s.4-1 1-1c2.8 0 5 2.2 5 5 0 .6-.4 1-1 1z"></path>
  <path fill="#010101" d="M4 9c-.6 0-1-.4-1-1 0-2.8 2.2-5 5-5 .6 0 1 .4 1 1s-.4 1-1 1C6.3 5 5 6.3 5 8c0 .6-.4 1-1 1z"></path>
  <path fill="#d8e5ea" d="M12 8H4c0-2.2 1.8-4 4-4s4 1.8 4 4"></path>
  <path fill="#060707" d="M21 9h9c.6 0 1-.4 1-1s-.4-1-1-1h-9c-.6 0-1 .4-1 1s.4 1 1 1zm0 27c0-.6-.4-1-1-1h-4c-.6 0-1 .4-1 1s.4 1 1 1h4c.6 0 1-.4 1-1zm15-1h-4c-.6 0-1 .4-1 1s.4 1 1 1h4c.6 0 1-.4 1-1s-.4-1-1-1zM16 13h20c.6 0 1-.4 1-1s-.4-1-1-1H16c-.6 0-1 .4-1 1s.4 1 1 1zm0 4h20c.6 0 1-.4 1-1s-.4-1-1-1H16c-.6 0-1 .4-1 1s.4 1 1 1zm0 4h20c.6 0 1-.4 1-1s-.4-1-1-1H16c-.6 0-1 .4-1 1s.4 1 1 1zm0 4h20c.6 0 1-.4 1-1s-.4-1-1-1H16c-.6 0-1 .4-1 1s.4 1 1 1zm0 4h20c.6 0 1-.4 1-1s-.4-1-1-1H16c-.6 0-1 .4-1 1s.4 1 1 1zm0 4h20c.6 0 1-.4 1-1s-.4-1-1-1H16c-.6 0-1 .4-1 1s.4 1 1 1z"></path>
  <path fill="#060707" d="M44 39h-3V8c0-2.8-2.2-5-5-5H8C5.2 3 3 5.2 3 8c0 .6.4 1 1 1h7v31c0 2.8 2.2 5 5 5h24c2.8 0 5-2.2 5-5 0-.6-.4-1-1-1zM5.2 7C5.6 5.8 6.7 5 8 5c.2 0 .4 0 .6.1h.2c.1 0 .2.1.4.1.1 0 .1 0 .2.1s.2.1.3.2c0 0 .1 0 .1.1.1.1.3.2.4.3l.1.1.3.3.1.1c.1.1.1.2.2.3 0 .1 0 .1.1.2V7H5.2zM19 40c0 1.7-1.3 3-3 3s-3-1.3-3-3V8c0-.3 0-.6-.1-.9 0-.1 0-.2-.1-.3-.1-.2-.1-.4-.2-.6 0-.1-.1-.2-.1-.3-.1-.2-.2-.4-.3-.5-.1-.1-.1-.2-.2-.2V5h24c1.7 0 3 1.3 3 3v31H20c-.6 0-1 .4-1 1zm21 3H20c.4-.6.8-1.3.9-2h21.9c-.4 1.2-1.5 2-2.8 2z"></path>
</svg>
